<svg xmlns="http://www.w3.org/2000/svg" width="132.246" height="24.682" viewBox="0 0 132.246 24.682"><defs><style>.a{fill:#f42d1f;}.b{fill:#48ca45;}.c{font-size:17px;font-family:MyriadPro-Semibold, Myriad Pro;font-weight:600;}</style></defs><path class="a" d="M148.748,33.491c-3.233,0-4.3,1.758-4.585,2.388a4.279,4.279,0,0,0-4.234-2.388,5.076,5.076,0,0,0-4,1.508,3.328,3.328,0,0,0-.784-1.564l-4.271-.046a3.929,3.929,0,0,1,.242.425c.043.087.089.185.136.3.011.025.021.051.031.077.054.136.109.289.161.458a8.654,8.654,0,0,1,.3,2.682,9.2,9.2,0,0,1-.14,1.121h0l-2.036,10.911h4.529l1.957-10.721A3.014,3.014,0,0,1,137,37.015a2.387,2.387,0,0,1,2.133-.2s1.315.463,1.185,2.816l-1.771,9.736H143l1.732-9.638.186-.9a3.448,3.448,0,0,1,1.049-1.9,2.383,2.383,0,0,1,1.985-.12s1.315.463,1.185,2.816l-1.771,9.736h4.453l1.732-9.638S154.414,33.491,148.748,33.491Z" transform="translate(-102.801 -27.379)"/><path class="a" d="M64.794,38.451h0c-.011-.115-.02-.183-.02-.183-.83-5.726-7.733-4.572-7.733-4.572a9.426,9.426,0,0,0-7.2,4.051h0a7.613,7.613,0,0,0-.612,1.07q-.114.233-.21.46L49,39.321c-.037.088-.072.176-.106.263a12.024,12.024,0,0,0-.569,1.909,7.9,7.9,0,0,0-.258,2.017s0,.005,0,.008h0a10.7,10.7,0,0,0,.066,1.341c.83,5.726,7.733,4.572,7.733,4.572,4.065-.465,6.25-2.452,7.425-4.411A10.589,10.589,0,0,0,64.8,40.429q.019-.2.029-.386c0-.073.007-.147.009-.221.005-.174.006-.339,0-.493,0-.072,0-.145,0-.218C64.825,38.828,64.808,38.6,64.794,38.451Zm-4.069,1.2s-.012.153-.041.394h0s0,.028-.009.072a9.993,9.993,0,0,1-.308,1.511,9.163,9.163,0,0,1-.815,2.093v0a4.654,4.654,0,0,1-4.025,2.878s-3.206.286-2.948-3.664c0,0,.025-.332.1-.79h0a10.2,10.2,0,0,1,.854-2.81c.087-.2.183-.4.292-.6.048-.09.077-.143.077-.143l0,0a4.526,4.526,0,0,1,3.877-2.605S60.983,35.7,60.725,39.649Z" transform="translate(-38.99 -27.544)"/><path class="a" d="M265.443,44.226c.108-.591.344-1.795.481-2.491.028-.126.053-.254.076-.385l.028-.144,0,0c.042-.251.079-.509.1-.779.012-.131.022-.26.029-.386,0-.073.007-.147.009-.221.005-.174.006-.339,0-.493,0-.072,0-.145,0-.218-.01-.282-.027-.512-.041-.659h0c-.011-.115-.02-.183-.02-.183-.83-5.726-7.733-4.572-7.733-4.572a9.427,9.427,0,0,0-7.2,4.051h0a7.6,7.6,0,0,0-.611,1.07q-.114.233-.21.46l-.019.046q-.056.132-.106.263a12,12,0,0,0-.569,1.909,7.9,7.9,0,0,0-.258,2.017v.008h0a10.7,10.7,0,0,0,.066,1.341c.83,5.726,7.733,4.572,7.733,4.572a11.068,11.068,0,0,0,4.24-1.307,3.556,3.556,0,0,0,.631,1.4h4.1C265.177,48.439,265.206,46.125,265.443,44.226Zm-3.389-4.577s-.012.153-.041.394h0s0,.028-.009.072a9.967,9.967,0,0,1-.308,1.511,9.164,9.164,0,0,1-.815,2.093v0a4.654,4.654,0,0,1-4.025,2.878s-3.206.286-2.947-3.664c0,0,.025-.332.1-.79h0a10.207,10.207,0,0,1,.854-2.81c.087-.2.183-.4.292-.6.048-.09.077-.143.077-.143l0,0a4.526,4.526,0,0,1,3.876-2.605S262.312,35.7,262.053,39.649Z" transform="translate(-196.635 -27.544)"/><path class="a" d="M22.878,15,6.23,13.737v3.236h4.029l-3.249,17h4.529l2.98-17h7.986Z" transform="translate(-6.23 -11.991)"/><g transform="translate(70.748)"><path class="a" d="M392.376,38.451h0c-.011-.115-.02-.183-.02-.183-.83-5.726-7.733-4.572-7.733-4.572a9.426,9.426,0,0,0-7.2,4.051h0a7.588,7.588,0,0,0-.612,1.07q-.114.233-.21.46l-.019.046q-.056.132-.106.263a12.025,12.025,0,0,0-.569,1.909,7.9,7.9,0,0,0-.258,2.017v.008h0a10.7,10.7,0,0,0,.066,1.341c.83,5.726,7.733,4.572,7.733,4.572,4.065-.465,6.25-2.452,7.425-4.411a10.591,10.591,0,0,0,1.506-4.592q.019-.2.029-.386c0-.073.007-.147.009-.221.005-.174.006-.339,0-.493,0-.072,0-.145-.005-.218C392.407,38.828,392.39,38.6,392.376,38.451Zm-4.07,1.2s-.012.153-.041.394h0s0,.028-.009.072a9.994,9.994,0,0,1-.308,1.511,9.161,9.161,0,0,1-.815,2.093v0a4.654,4.654,0,0,1-4.025,2.878s-3.206.286-2.948-3.664c0,0,.025-.332.1-.79h0a10.207,10.207,0,0,1,.854-2.81c.087-.2.183-.4.292-.6.048-.09.077-.143.077-.143l0,0a4.526,4.526,0,0,1,3.877-2.605S388.565,35.7,388.306,39.649Z" transform="translate(-366.242 -27.544)"/><path class="a" d="M348.94,15l-16.648-1.263v3.236h4.029l-3.249,17H337.6l2.98-17h7.986Z" transform="translate(-332.292 -11.991)"/><path class="b" d="M449.519,7.162h0c0-.048-.008-.076-.008-.076a2.069,2.069,0,0,0-.762-1.393A3.825,3.825,0,0,0,445.612,7.8l-.052.1-.051.136v-.1c.36-1.075-.665-1.561-1.6-1.78a3.622,3.622,0,0,0-.63.713h0a3.16,3.16,0,0,0-.255.447q-.048.1-.088.192l-.008.019c-.015.037-.03.073-.044.11a5,5,0,0,0-.238.8,3.3,3.3,0,0,0-.108.843v0h0a4.481,4.481,0,0,0,.027.56c.347,2.392,3.23,1.91,3.23,1.91a3.9,3.9,0,0,0,3.1-1.842,4.421,4.421,0,0,0,.629-1.918c.005-.055.009-.108.012-.161,0-.031,0-.061,0-.092,0-.072,0-.141,0-.206q0-.045,0-.091C449.532,7.32,449.525,7.224,449.519,7.162Zm-3.995,3.4h.123A.966.966,0,0,1,445.524,10.563Z" transform="translate(-418.613 -5.692)"/></g><text class="c" transform="translate(101.246 20.682)"><tspan x="0" y="0">POP</tspan></text></svg>